<?xml version="1.0" standalone="no"?><svg xmlns="http://www.w3.org/2000/svg" viewBox="0 0 1440 320"><path fill="#00cba9" fill-opacity="1" d="M0,32L16,42.7C32,53,64,75,96,122.7C128,171,160,245,192,256C224,267,256,213,288,181.3C320,149,352,139,384,138.7C416,139,448,149,480,138.7C512,128,544,96,576,101.3C608,107,640,149,672,138.7C704,128,736,64,768,74.7C800,85,832,171,864,186.7C896,203,928,149,960,160C992,171,1024,245,1056,250.7C1088,256,1120,192,1152,181.3C1184,171,1216,213,1248,197.3C1280,181,1312,107,1344,117.3C1376,128,1408,224,1424,272L1440,320L1440,0L1424,0C1408,0,1376,0,1344,0C1312,0,1280,0,1248,0C1216,0,1184,0,1152,0C1120,0,1088,0,1056,0C1024,0,992,0,960,0C928,0,896,0,864,0C832,0,800,0,768,0C736,0,704,0,672,0C640,0,608,0,576,0C544,0,512,0,480,0C448,0,416,0,384,0C352,0,320,0,288,0C256,0,224,0,192,0C160,0,128,0,96,0C64,0,32,0,16,0L0,0Z"></path></svg>